<svg width="1339" height="1341" viewBox="0 0 1339 1341" fill="none" xmlns="http://www.w3.org/2000/svg">
<g clip-path="url(#clip0_8_1153)">
<path d="M653.488 -0.2032C654.832 -0.210267 656.175 -0.2174 657.518 -0.224593C661.783 -0.244095 666.048 -0.249285 670.312 -0.250075C671.04 -0.25037 671.767 -0.250664 672.517 -0.250968C694.469 -0.252404 716.217 -0.0853004 738 2.99993C738.66 3.09231 739.319 3.1847 739.999 3.27989C751.387 4.88758 762.698 6.876 774 8.99992C775.445 9.2709 775.445 9.2709 776.919 9.54735C837.034 20.8628 895.321 37.3367 951 62.9999C951.908 63.4145 952.815 63.8291 953.75 64.2563C967.509 70.5634 980.802 77.5977 994 84.9999C994.893 85.4978 995.785 85.9957 996.705 86.5087C1033.62 107.142 1068.06 131.572 1100.24 158.991C1103.4 161.674 1106.6 164.271 1109.88 166.812C1120.4 175.164 1129.94 184.785 1139.32 194.379C1141.22 196.243 1143.09 197.934 1145.14 199.613C1147.45 201.538 1149.3 203.322 1151.19 205.625C1154.13 209.086 1157.26 212.312 1160.5 215.5C1164.88 219.837 1169.01 224.3 1173 229C1173.91 230.05 1174.83 231.1 1175.74 232.148C1181.08 238.285 1186.25 244.485 1191.15 250.977C1193.9 254.61 1196.75 258.137 1199.67 261.64C1206.8 270.239 1213.16 279.223 1219.35 288.521C1220.99 290.988 1222.66 293.441 1224.33 295.891C1258.12 345.624 1285.82 398.983 1305 456C1305.33 456.974 1305.67 457.948 1306.01 458.952C1323.85 511.732 1334.39 568.421 1338 624C1338.04 624.623 1338.08 625.247 1338.13 625.889C1339.01 639.531 1339.2 653.145 1339.19 666.812C1339.19 667.9 1339.19 668.988 1339.19 670.109C1339.09 734.621 1332.21 799.179 1312.67 860.883C1311.93 863.23 1311.19 865.579 1310.46 867.928C1303.52 889.995 1296.42 911.846 1287 933C1286.27 934.644 1286.27 934.644 1285.52 936.322C1281.81 944.608 1277.95 952.822 1274 961C1273.69 961.646 1273.38 962.293 1273.06 962.959C1264.57 980.52 1255.68 997.71 1245.57 1014.4C1244.1 1016.83 1242.65 1019.26 1241.21 1021.7C1224.74 1049.33 1205.5 1075.5 1184.6 1099.93C1182.27 1102.66 1180.04 1105.45 1177.81 1108.25C1173.16 1113.97 1168.11 1119.3 1163.02 1124.64C1159.52 1128.31 1156.07 1132.03 1152.69 1135.83C1148.08 1140.98 1143.26 1145.89 1138.36 1150.77C1136.93 1152.19 1135.51 1153.62 1134.08 1155.05C1129.43 1159.7 1124.73 1164.23 1119.73 1168.52C1117.33 1170.58 1115.01 1172.73 1112.69 1174.87C1108.25 1178.91 1103.72 1182.77 1099.05 1186.54C1096.83 1188.33 1094.62 1190.14 1092.42 1191.96C1082.23 1200.37 1071.73 1208.29 1061 1216C1060.18 1216.59 1059.36 1217.18 1058.51 1217.79C998.258 1260.91 930.119 1294.21 859 1315C857.772 1315.36 856.544 1315.73 855.278 1316.11C818.045 1327.16 780.443 1333.93 741.875 1338.25C740.763 1338.37 740.763 1338.37 739.628 1338.5C737.479 1338.74 735.33 1338.97 733.18 1339.2C731.96 1339.33 730.74 1339.46 729.484 1339.6C717.05 1340.77 704.715 1341.16 692.238 1341.17C690.556 1341.17 688.873 1341.17 687.19 1341.18C683.678 1341.18 680.166 1341.19 676.654 1341.19C673.116 1341.19 669.579 1341.19 666.041 1341.21C638.438 1341.31 611.213 1340.41 583.812 1336.75C583.001 1336.64 582.189 1336.54 581.353 1336.43C504.146 1326.26 428.496 1302.86 243.756 1189.44C242.195 1188.16 240.622 1186.9 239.047 1185.64C233.164 1180.93 227.601 1175.95 222.121 1170.78C219.148 1167.98 216.142 1165.23 213.059 1162.55C209.041 1159.06 205.13 1155.46 201.25 1151.81C200.56 1151.16 199.871 1150.52 199.16 1149.85C191.036 1142.19 182.94 1134.48 175.688 1125.97C173.77 1123.73 171.794 1121.55 169.812 1119.37C160.643 1109.19 151.869 1098.75 143.488 1087.91C141.901 1085.87 140.297 1083.85 138.691 1081.82C100.435 1033.4 69.8291 978.348 46.86 921.141C45.9877 918.969 45.1093 916.801 44.231 914.632C34.3923 890.232 26.7054 865.429 20 840C19.8135 839.295 19.627 838.589 19.4349 837.863C5.41487 784.636 -0.592666 730.185 -0.44605 675.22C-0.43688 671.624 -0.443775 668.028 -0.466557 664.431C-0.684755 629.67 1.84863 595.48 7.81738 561.209C8.3856 557.939 8.92842 554.665 9.46875 551.391C12.9945 530.403 18.0172 509.799 23.75 489.312C23.96 488.56 24.1699 487.808 24.3863 487.033C34.8835 449.576 49.0449 413.961 66 379C66.3237 378.331 66.6475 377.661 66.981 376.971C75.2644 359.856 83.8171 343.083 94 327C95.0191 325.365 96.0374 323.73 97.0547 322.094C117.892 288.711 141.069 256.238 167.852 227.332C169.724 225.3 171.525 223.231 173.312 221.125C177.065 216.793 181.16 212.814 185.233 208.787C188.764 205.28 192.102 201.682 195.332 197.894C200.432 192.102 206.058 186.882 211.914 181.871C214.318 179.715 216.556 177.434 218.812 175.125C223.018 170.874 227.425 167.071 232.094 163.34C234.664 161.27 237.183 159.158 239.69 157.013C267.353 133.346 297.59 112.367 329 93.9999C329.746 93.561 330.493 93.1221 331.262 92.6698C397.093 54.0623 470.184 25.033 545.725 12.7114C550.902 11.8589 556.067 10.9388 561.234 10.0273C591.886 4.64394 622.288 -0.0921504 653.488 -0.2032ZM668 83.9999C653.956 101.968 643.852 120.583 644 144C644.33 144.99 644.66 145.98 645 147C643.763 146.959 642.525 146.917 641.25 146.875C631.057 146.939 621.202 148.488 613 155C611.666 157.582 611.666 157.582 611 160C611.785 160.391 611.785 160.391 612.585 160.791C631.926 170.51 631.926 170.51 640 178C640.666 178.576 641.333 179.152 642.02 179.746C653.803 190.554 660.912 205.94 668 220C671.344 219.255 671.344 219.255 672.91 215.676C673.633 214.224 674.35 212.769 675.062 211.312C687.346 187.319 704.621 172.1 728 159C721.393 150.257 712.433 148.634 702 147C699.266 146.813 696.74 146.836 694 147C694.093 145.298 694.093 145.298 694.188 143.562C694.12 122 685.125 101.09 671 84.9999C670.01 84.6699 669.02 84.3399 668 83.9999ZM551 144C550.18 145.558 549.369 147.122 548.562 148.687C548.11 149.558 547.658 150.428 547.191 151.324C541.948 163.101 545.925 175.433 550.109 186.844C550.465 187.815 550.82 188.786 551.187 189.787C551.589 190.882 551.589 190.882 552 192C551.209 192.111 550.419 192.221 549.604 192.335C545.965 192.846 542.326 193.361 538.688 193.875C537.444 194.049 536.201 194.223 534.92 194.402C529.293 195.2 523.697 196.031 518.117 197.113C513.522 197.97 509.108 198.348 504.438 198.312C503.714 198.311 502.991 198.31 502.246 198.309C496.486 198.205 491.351 197.209 486 195C486.18 202.18 490.952 206.013 495.773 210.738C508.966 222.767 530.666 220.461 547.426 220.954C584.44 222.085 618.207 234.133 644.406 261.031C649.57 266.941 654.212 273.273 658.852 279.598C659.231 280.061 659.61 280.523 660 281C660.33 281 660.66 281 661 281C660.449 248.928 642.133 222.302 619.898 200.644C614.278 195.301 608.245 190.584 602 186C601.461 185.6 600.922 185.201 600.367 184.789C594.616 180.538 588.76 176.478 582.766 172.578C559.235 157.254 559.235 157.254 553 144C552.34 144 551.68 144 551 144ZM785 144C783.319 146.078 783.319 146.078 781.625 148.687C779.678 151.561 777.753 154.304 775.562 157C773.795 158.84 773.795 158.84 774 161C773.435 161.264 772.87 161.528 772.288 161.8C769.823 163.093 767.653 164.582 765.391 166.203C761.105 169.239 756.758 172.157 752.365 175.034C739.058 183.766 726.577 193.04 715 204C714.293 204.658 714.293 204.658 713.571 205.33C695.87 221.891 681.535 244.575 678 269C677.934 271.103 677.914 273.208 677.938 275.312C677.947 276.381 677.956 277.45 677.965 278.551C677.976 279.359 677.988 280.167 678 281C680.83 277.516 683.494 273.948 686.125 270.312C702.98 247.695 729.103 231.463 756.375 224.812C757.01 224.657 757.645 224.502 758.299 224.342C772.338 221.158 786.557 220.519 800.884 220.046C815.648 219.54 836.096 218.225 847 207C849.258 203.751 851 201.066 851 197C849.857 197.158 848.713 197.317 847.535 197.48C834.528 199.087 822.145 197.955 809.32 195.502C801.529 194.022 793.926 193.25 786 193C786.632 191.246 786.632 191.246 787.277 189.457C787.831 187.909 788.384 186.361 788.938 184.812C789.215 184.043 789.493 183.275 789.779 182.482C793.31 172.571 795.545 160.74 791.125 150.75C789.88 148.371 788.494 146.242 787 144C786.34 144 785.68 144 785 144ZM401.668 184.031C386.669 200.722 379.153 220.791 379.719 243.219C381.332 264.907 390.297 286.86 405 303C405.873 303.965 406.745 304.931 407.645 305.926C425.133 324.642 447.424 333.666 472.912 334.925C502.07 335.81 528.962 325.598 556 316C556 315.67 556 315.34 556 315C542.311 314.444 529.458 315.722 515.961 318.027C494.417 321.673 472.001 322.022 453 310C447.962 306.244 443.964 302.598 441 297C441 296.34 441 295.68 441 295C441.74 295.212 442.481 295.424 443.244 295.643C452.636 298.097 461.407 298.479 471.062 298.375C471.837 298.37 472.611 298.366 473.409 298.361C485.536 298.276 497.1 297.417 509 295C511.592 294.498 514.184 293.998 516.777 293.5C520.923 292.703 525.067 291.902 529.206 291.07C563.878 284.156 602.024 287.378 632.375 306.875C641.757 313.477 649.519 321.345 657 330C657.66 329.34 658.32 328.68 659 328C647.062 297.563 623.694 277.682 594.27 264.262C573.186 255.364 551.582 251.475 528.875 250.062C508.207 248.726 488.665 244.623 473 230C472.39 229.431 471.781 228.863 471.152 228.277C461 217.767 456.473 203.75 456.43 189.418C456.726 178.694 461.116 170.598 468.625 162.937C470.075 161.616 471.533 160.303 473 159C474.675 157.342 476.344 155.677 478 154C447.66 152.975 423.137 161.986 401.668 184.031ZM861 154C864.342 158.23 864.342 158.23 868.375 161.75C876.121 168.389 881.244 178.037 882.344 188.164C882.759 202.676 878.245 214.99 869 226.125C852.901 243.144 828.793 249.527 806.065 250.29C768.295 251.609 734.306 263.826 706 289C704.896 289.887 704.896 289.887 703.77 290.793C693.237 299.307 682.683 313.363 680.316 326.914C680.212 327.932 680.108 328.951 680 330C682.5 327.523 684.969 325.033 687.367 322.457C708.698 299.964 740.327 288.71 770.941 287.719C784.635 287.461 797.641 288.026 811 291C813.263 291.489 815.526 291.977 817.789 292.465C818.999 292.726 820.209 292.987 821.456 293.257C822.687 293.523 823.919 293.789 825.188 294.062C826.413 294.327 827.638 294.592 828.9 294.864C851.694 299.755 874.085 300.917 897 296C891.911 307.108 881.978 312.562 871 317C853.156 322.941 834.748 319.867 816.628 317.143C804.672 315.351 793.11 314.315 781 315C784.33 317.22 787.672 318.385 791.43 319.644C792.168 319.895 792.907 320.145 793.668 320.403C796.068 321.213 798.471 322.014 800.875 322.812C801.688 323.084 802.502 323.355 803.34 323.635C831.087 332.863 861.286 341.07 890 331C890.634 330.78 891.269 330.561 891.922 330.334C918.575 320.936 937.666 302.834 949.812 277.562C959.915 255.707 960.799 231.92 952.75 209.312C946.545 194.13 935.479 180.351 922 171C921.025 170.323 920.051 169.646 919.047 168.949C901.458 157.447 881.886 153.093 861 154ZM285.512 244.734C283.434 246.609 281.33 248.441 279.211 250.269C274.948 253.993 270.927 257.924 266.938 261.937C266.269 262.602 265.601 263.266 264.912 263.951C260.967 267.904 257.213 271.969 253.566 276.198C251.563 278.503 249.468 280.715 247.375 282.937C230.414 301.574 214.696 323.522 206.438 347.5C206.186 348.217 205.934 348.934 205.675 349.673C203.986 354.919 203.789 359.497 204 365C216.234 360.629 226.994 349.856 235.238 340.074C237.184 337.784 239.213 335.585 241.25 333.375C246.279 327.795 250.874 321.922 255.464 315.982C257.074 313.904 258.696 311.836 260.32 309.769C266.365 302.063 272.291 294.289 278.062 286.375C282.983 279.633 288.078 273.082 293.385 266.641C296.7 262.615 299.917 258.534 303.062 254.375C310.96 244.037 319.584 234.335 328.422 224.797C330.793 222.225 333.119 219.619 335.438 217C338.977 213.057 342.638 209.255 346.375 205.5C346.887 204.983 347.4 204.466 347.927 203.934C350.195 201.676 352.327 199.782 355 198C355 197.34 355 196.68 355 196C333.021 196 300.898 230.701 285.512 244.734ZM984 197C988.248 202.085 992.709 206.8 997.438 211.437C1001.9 215.854 1006.29 220.26 1010.34 225.059C1012.46 227.534 1014.67 229.917 1016.88 232.312C1021.33 237.199 1025.53 242.235 1029.68 247.38C1031.15 249.19 1032.65 250.98 1034.15 252.769C1042.47 262.729 1050.32 272.977 1058.06 283.395C1068.51 297.41 1079.22 311.237 1090 325C1090.77 325.986 1091.54 326.972 1092.33 327.988C1096.98 333.885 1101.88 339.505 1107 345C1108.14 346.255 1108.14 346.255 1109.3 347.535C1113.95 352.457 1118.77 356.461 1124.44 360.125C1125.04 360.516 1125.64 360.906 1126.27 361.309C1129.06 363.046 1130.65 364 1134 364C1133.88 336.051 1114.3 310.251 1097 290C1096.07 288.892 1095.13 287.784 1094.2 286.676C1082.32 272.635 1070 258.959 1056 247C1054.99 246.119 1053.99 245.238 1052.98 244.355C1044.59 237.024 1035.88 230.209 1026.98 223.508C1025.19 222.143 1023.42 220.753 1021.66 219.344C1004.28 204.678 1004.28 204.678 984 197ZM233.301 259.469C228.692 264.177 224.234 268.951 220 274C219.55 274.536 219.101 275.072 218.637 275.624C209.918 286.063 201.795 296.856 194 308C193.349 308.924 193.349 308.924 192.686 309.868C173.9 336.714 157.829 366.353 149 398C148.797 398.726 148.593 399.453 148.384 400.202C144.155 416.134 143.84 435.274 149 451C150.696 449.357 152.355 447.693 154 446C154.605 445.38 155.209 444.76 155.832 444.121C161.556 437.99 165.911 431.302 170 424C170.637 422.864 171.274 421.729 171.93 420.559C181.501 402.769 187.322 383.075 193.749 363.997C203.755 334.301 214.519 305.323 228 277C228.895 275.102 229.79 273.203 230.684 271.305C232.777 266.864 234.884 262.43 237 258C234.878 257.782 234.878 257.782 233.301 259.469ZM1102 258C1103.44 262.689 1105.36 266.995 1107.56 271.363C1108.28 272.807 1109 274.252 1109.71 275.696C1110.08 276.448 1110.46 277.2 1110.84 277.975C1126.41 309.424 1137.35 342.114 1148.45 375.346C1161.83 416.891 1161.83 416.891 1189 450C1191.59 443.919 1192.67 438.588 1193 432C1193.05 431.227 1193.11 430.453 1193.16 429.656C1195.18 374.139 1157.22 323.531 1125 282C1124.32 281.114 1124.32 281.114 1123.62 280.21C1117.41 272.183 1110.4 264.929 1103 258C1102.67 258 1102.34 258 1102 258ZM264.375 322.062C263.473 322.891 262.57 323.72 261.641 324.574C260.769 325.375 259.898 326.175 259 327C257.713 328.13 256.421 329.255 255.125 330.375C246.199 338.183 237.8 346.049 230 355C228.502 356.647 227.002 358.293 225.5 359.937C221.702 364.161 218.069 368.492 214.5 372.91C212.68 375.16 210.848 377.395 209 379.621C183.437 410.531 153.11 450.663 155 493C155.33 493.66 155.66 494.32 156 495C160.88 494.543 163.942 492.119 167.625 489.125C168.239 488.632 168.853 488.138 169.485 487.63C184.518 475.356 195.599 460.84 205 444C205.408 443.274 205.816 442.549 206.236 441.801C212.488 430.574 217.846 419.035 222.938 407.25C235.86 377.342 249.848 348.298 269.531 322.18C271.186 320.162 271.186 320.162 271 318C267.872 318 266.626 319.976 264.375 322.062ZM1068 319C1069.35 321.83 1070.87 324.422 1072.62 327.027C1089.85 352.987 1103.67 380.149 1116.06 408.687C1126.43 432.544 1136.73 455.044 1155 474C1155.56 474.595 1156.13 475.19 1156.71 475.804C1158.63 477.82 1160.56 479.818 1162.5 481.812C1163.1 482.447 1163.71 483.082 1164.33 483.736C1168.66 488.113 1173.24 491.69 1179 494C1180.32 494 1181.64 494 1183 494C1183.21 487.246 1182.75 480.988 1181.38 474.375C1181.2 473.507 1181.02 472.64 1180.83 471.746C1173.51 438.197 1152.07 409.248 1131.29 382.661C1129.96 380.945 1128.63 379.221 1127.31 377.496C1121.66 370.152 1115.72 363.217 1109.37 356.468C1108 354.998 1106.66 353.507 1105.32 352.008C1098.63 344.52 1091.48 337.696 1084 331C1083.13 330.211 1082.25 329.422 1081.35 328.609C1075.34 322.23 1075.34 322.23 1068 319ZM307 366C309.608 370.368 309.608 370.368 312.68 374.172C313.19 374.745 313.7 375.317 314.226 375.908C315.042 376.82 315.042 376.82 315.875 377.75C345.861 411.965 357.577 447.613 358.5 492.937C358.771 505.976 359.241 518.98 360 532C364.007 528.096 364.007 528.096 367.43 523.695C367.829 523.115 368.228 522.535 368.639 521.938C369.047 521.34 369.455 520.741 369.875 520.125C373.072 515.539 376.269 511.386 380.367 507.555C382.774 505.263 384.888 502.743 387.055 500.227C389.305 497.651 391.62 495.141 393.938 492.625C397.812 488.381 401.436 484.015 404.977 479.492C407.899 475.892 411.048 472.513 414.215 469.129C416.192 467.035 416.192 467.035 417 464C418.821 462.976 418.821 462.976 421 462C422.305 461.153 423.595 460.281 424.871 459.391C442.211 447.447 457.455 440.764 478.719 440.848C479.531 440.85 480.343 440.851 481.179 440.853C490.981 440.937 500.731 441.686 510.5 442.437C513.244 442.643 515.988 442.847 518.732 443.049C520.414 443.173 522.097 443.299 523.779 443.429C529.803 443.882 535.83 444.212 541.863 444.524C542.743 444.57 543.623 444.616 544.529 444.663C546.686 444.776 548.843 444.888 551 445C550.97 446.138 550.94 447.277 550.91 448.45C549.866 489.524 549.865 530.588 549.896 571.672C549.904 581.522 549.905 591.371 549.906 601.221C549.908 618.773 549.915 636.325 549.925 653.877C549.934 670.885 549.941 687.894 549.945 704.902C549.945 705.958 549.946 707.014 549.946 708.101C549.947 713.4 549.948 718.698 549.95 723.996C549.96 767.664 549.978 811.332 550 855C547.278 853.084 544.558 851.167 541.838 849.25C540.689 848.441 540.689 848.441 539.518 847.617C533.957 843.696 528.477 839.684 523.062 835.562C516.618 830.691 510.128 825.895 503.562 821.187C496.254 815.937 489.056 810.586 482 805C481.255 804.434 480.51 803.868 479.742 803.285C465.827 792.126 458.522 774.236 456 757C455.904 754.863 455.854 752.723 455.842 750.584C455.827 748.678 455.827 748.678 455.812 746.734C455.806 745.339 455.8 743.944 455.795 742.549C455.785 741.071 455.775 739.592 455.765 738.113C455.738 734.11 455.717 730.106 455.697 726.102C455.675 721.914 455.647 717.726 455.621 713.538C455.571 705.612 455.526 697.686 455.483 689.76C455.424 679.047 455.358 668.333 455.292 657.62C455.188 640.746 455.095 623.873 455 607C423.65 607 392.3 607 360 607C359.753 630.248 359.753 630.248 359.527 653.496C359.449 661.817 359.369 670.137 359.276 678.457C359.203 685.049 359.137 691.641 359.081 698.233C359.051 701.716 359.017 705.2 358.974 708.683C358.752 726.822 359.036 744.201 363.25 761.937C363.468 762.863 363.685 763.788 363.909 764.742C374.065 806.708 397.433 842.861 432.174 868.636C434.138 870.103 436.078 871.599 438.016 873.102C446.012 879.293 454.123 885.302 462.341 891.197C467.25 894.722 472.112 898.3 476.938 901.937C485.105 908.093 493.337 914.16 501.577 920.218C505.553 923.142 509.526 926.071 513.5 929C515.083 930.167 516.667 931.333 518.25 932.5C532.5 943 532.5 943 546.75 953.5C547.926 954.366 547.926 954.366 549.126 955.25C550.707 956.415 552.288 957.58 553.868 958.746C557.863 961.689 561.858 964.631 565.855 967.57C574.035 973.586 582.187 979.634 590.296 985.745C594.464 988.876 598.679 991.93 602.938 994.937C608.221 998.671 613.376 1002.55 618.5 1006.5C623.881 1010.64 629.293 1014.73 634.812 1018.69C635.665 1019.3 635.665 1019.3 636.535 1019.93C639.305 1021.9 641.941 1023.47 645 1025C645 807.53 645 590.06 645 366C533.46 366 421.92 366 307 366ZM694 366C694 583.14 694 800.28 694 1024C697.817 1022.47 700.021 1021.45 703.152 1019.09C704.306 1018.23 704.306 1018.23 705.484 1017.35C706.294 1016.74 707.103 1016.13 707.938 1015.5C709.646 1014.22 711.356 1012.95 713.066 1011.67C713.906 1011.04 714.745 1010.42 715.61 1009.77C718.832 1007.38 722.098 1005.06 725.375 1002.75C729.718 999.673 733.98 996.51 738.188 993.25C750.633 983.614 763.091 974.155 776.682 966.17C782.252 962.809 787.037 958.926 790 953C790.097 951.123 790.128 949.242 790.129 947.362C790.133 946.15 790.136 944.938 790.139 943.69C790.137 942.327 790.135 940.964 790.133 939.602C790.134 938.153 790.135 936.705 790.137 935.257C790.14 931.234 790.135 927.211 790.129 923.189C790.125 920.615 790.123 918.041 790.121 915.467C790.077 855.243 789.506 795.015 788.711 734.797C788.7 733.992 788.69 733.186 788.679 732.357C788.477 717.237 788.234 702.119 788 687C820.01 687 852.02 687 885 687C885 752.01 885 817.02 885 884C889.009 881.996 891.813 880.576 895.172 877.926C895.914 877.345 896.655 876.764 897.42 876.165C898.189 875.554 898.958 874.942 899.75 874.312C900.951 873.365 900.951 873.365 902.176 872.399C903.754 871.154 905.33 869.906 906.905 868.656C908.596 867.319 910.302 866 912.012 864.687C931.581 849.562 947.814 828.974 959 807C959.311 806.4 959.623 805.801 959.943 805.183C973.531 778.768 979.102 749.391 979.189 719.878C979.197 718.365 979.206 716.852 979.215 715.34C979.237 711.229 979.254 707.119 979.271 703.009C979.289 698.624 979.312 694.239 979.336 689.855C979.374 682.37 979.41 674.885 979.445 667.4C979.498 655.747 979.563 644.095 979.63 632.443C979.641 630.5 979.652 628.558 979.663 626.615C979.679 623.707 979.696 620.8 979.712 617.892C979.772 607.35 979.831 596.808 979.888 586.267C979.893 585.347 979.898 584.428 979.903 583.481C979.972 570.741 980.033 558 980.085 545.26C980.128 534.917 980.183 524.574 980.253 514.231C980.295 507.945 980.321 501.659 980.334 495.373C980.346 491.555 980.375 487.738 980.408 483.921C980.419 482.224 980.425 480.527 980.422 478.83C980.382 440.268 997.31 406.657 1022.39 378.195C1025.54 374.339 1028.24 370.14 1031 366C982.82 366 934.64 366 885 366C885 445.86 885 525.72 885 608C860.25 607.505 860.25 607.505 835 607C826.289 606.943 817.585 606.897 808.875 606.937C805.33 606.95 801.784 606.96 798.239 606.971C796.477 606.976 794.716 606.982 792.955 606.987C791.65 606.992 790.345 606.996 789 607C789.001 606.458 789.002 605.915 789.003 605.356C789.07 570.752 788.973 536.15 788.781 501.547C788.776 500.559 788.77 499.572 788.765 498.554C788.697 486.391 788.626 474.228 788.555 462.064C788.481 449.567 788.41 437.071 788.339 424.574C788.228 405.049 788.114 385.525 788 366C756.98 366 725.96 366 694 366ZM136 408C121.741 427.509 112.289 451.859 111 476C110.947 476.838 110.894 477.676 110.84 478.539C110.071 502.263 117.099 527.078 128 548C128.66 548.66 129.32 549.32 130 550C144.383 530.877 152.424 506.849 150 483C148.912 477.329 147.347 471.807 145.782 466.252C140.435 447.188 138.38 427.705 137 408C136.67 408 136.34 408 136 408ZM1201 410C1200.94 411.001 1200.94 411.001 1200.88 412.022C1199.59 432.881 1197.22 452.984 1191.02 473.001C1183.85 496.274 1190.87 518.497 1201.62 539.375C1202 540.107 1202.37 540.839 1202.75 541.593C1204.75 545.333 1206.1 547.348 1210 549C1227.17 512.257 1233.11 476.922 1218.96 437.937C1215.26 428.319 1210.38 417.358 1203 410C1202.34 410 1201.68 410 1201 410ZM181 490C180.263 490.686 179.525 491.372 178.766 492.078C160.465 509.6 150.038 530.401 144.688 555C144.516 555.789 144.344 556.579 144.167 557.392C143.224 562.022 142.83 566.276 143 571C170.474 560.164 191.085 543.679 202.978 516.391C204.047 513.89 205.1 511.384 206.148 508.875C212.954 492.608 220.858 477.448 231 463C230.505 462.01 230.505 462.01 230 461C214.007 461 191.971 479.465 181 490ZM1108 462C1110.63 466.95 1113.28 471.875 1116.24 476.637C1124.82 490.533 1131.14 505.378 1137.23 520.508C1140.61 528.879 1143.66 536.377 1150 543C1150.57 543.656 1151.14 544.312 1151.72 544.988C1163.08 557.405 1180.39 565.359 1196 571C1191.7 537.624 1179.81 507.723 1153 486C1152.07 485.229 1151.13 484.458 1150.17 483.664C1139.36 474.921 1122.46 462 1108 462ZM105 510C101.912 515.741 99.8881 521.187 98.3125 527.5C98.1004 528.303 97.8884 529.106 97.6699 529.934C89.8528 560.363 96.4425 590.9 111 618C111.494 618.935 111.494 618.935 111.997 619.889C116.501 628.376 121.576 635.841 128 643C128.519 643.594 129.039 644.188 129.574 644.801C131.072 646.322 131.072 646.322 134 646C138.473 632.74 141.239 619.943 141.438 605.937C141.46 605.076 141.482 604.215 141.505 603.328C141.457 589.141 136.156 577.451 129.518 565.279C122.146 551.725 115.821 538.239 110.884 523.594C109.331 519.036 107.659 514.52 106 510C105.67 510 105.34 510 105 510ZM1232 510C1231.77 510.653 1231.55 511.305 1231.32 511.977C1225.14 529.762 1218.21 546.794 1209.65 563.564C1197.29 587.793 1193.91 612.523 1202 639C1202.94 641.693 1203.96 644.343 1205 647C1226.97 629.153 1239.28 601.027 1242.77 573.27C1244.54 555.57 1242.09 538.035 1237.5 520.937C1237.3 520.181 1237.1 519.425 1236.89 518.646C1235.82 514.93 1234.86 512.579 1232 510ZM193 549C191.733 550.079 191.733 550.079 190.441 551.18C164.061 574.226 147.835 605.631 145.129 640.758C145.086 641.498 145.044 642.238 145 643C144.947 643.699 144.894 644.397 144.84 645.117C144.541 652.207 146.035 659.212 148 666C148.66 666.66 149.32 667.32 150 668C150.629 667.431 151.258 666.863 151.906 666.277C152.762 665.505 153.618 664.733 154.5 663.937C155.418 663.109 156.336 662.28 157.281 661.426C159.493 659.453 161.734 657.534 164 655.625C183.079 638.897 191.042 619.723 193.968 595.013C196.215 576.188 200.456 557.809 207 540C201.341 540 197.128 545.443 193 549ZM1132 540C1133.31 544.929 1134.63 549.843 1136.17 554.707C1140.48 568.333 1142.83 582.24 1144.74 596.387C1147.67 618.011 1154.44 635.328 1170 651C1170.7 651.741 1171.41 652.482 1172.13 653.246C1176.99 658.294 1182.25 662.981 1188 667C1188.66 667 1189.32 667 1190 667C1197.02 639.67 1189.65 607.201 1175.87 583.018C1168.65 571.068 1159.76 560.911 1149 552C1148.01 551.149 1147.03 550.298 1146.01 549.422C1144.95 548.51 1143.88 547.598 1142.81 546.687C1141.83 545.846 1140.85 545.004 1139.83 544.137C1137.23 542.176 1135.07 541.015 1132 540ZM86 605C78.9775 629.485 89.0959 661.479 100.734 683.18C104.436 689.668 109.157 695.343 114 701C114.741 701.893 115.482 702.787 116.246 703.707C125.552 714.55 136.984 723.348 149 731C149.33 731 149.66 731 150 731C150.601 703.099 149.336 679.32 129.617 657.629C127.923 655.86 127.923 655.86 125.5 654C122.592 651.674 120.346 649.075 117.937 646.246C115.931 643.92 113.844 641.685 111.75 639.437C103.388 630.151 96.3108 619.818 89.7285 609.216C88.8423 607.796 87.9245 606.395 87 605C86.67 605 86.34 605 86 605ZM1251 605C1250.26 606.135 1249.56 607.303 1248.88 608.48C1243.71 617.316 1238.4 625.43 1231.59 633.078C1229.26 635.711 1227.1 638.411 1224.94 641.187C1220.63 646.525 1215.78 651.211 1210.88 656C1194.11 672.51 1189.49 689.057 1188.31 712.312C1188.26 713.244 1188.22 714.175 1188.17 715.134C1187.94 720.567 1188.16 725.626 1189 731C1220.04 712.773 1241.45 684.237 1250.64 649.598C1254.09 635.918 1257.5 618.502 1252 605C1251.67 605 1251.34 605 1251 605ZM198.066 623.914C173.928 650.048 160.91 682.114 161.916 717.882C162.484 732.139 165.955 745.363 170 759C171.32 759 172.64 759 174 759C175.758 757.199 177.16 755.522 178.625 753.5C179.054 752.922 179.484 752.344 179.927 751.748C192.176 734.983 201.454 718.81 201.188 697.562C201.187 696.59 201.186 695.617 201.186 694.615C201.159 690.208 201.03 685.888 200.496 681.512C199.669 674.014 199.852 666.458 199.87 658.925C199.875 656.27 199.87 653.616 199.863 650.961C199.86 641.258 200.118 631.67 201 622C199.665 621.883 199.665 621.883 198.066 623.914ZM1138 624C1138.07 624.902 1138.14 625.805 1138.22 626.734C1139.71 647.151 1139.35 667.455 1137.45 687.824C1136.06 703.037 1137.36 716.128 1144 730C1144.43 730.905 1144.86 731.81 1145.31 732.742C1150.61 743.099 1157.7 752.923 1167 760C1169.8 754.405 1171.69 748.922 1173.19 742.875C1173.44 741.872 1173.44 741.872 1173.69 740.85C1181.14 709.808 1174.24 675.596 1159 648C1153.54 639.205 1146.53 629.993 1138 624ZM1256 681C1254.8 682.581 1253.64 684.191 1252.5 685.812C1238.99 704.59 1223.68 720.354 1204.96 733.845C1198.14 738.795 1192.04 744.124 1186 750C1185.27 750.66 1184.53 751.32 1183.78 752C1170.92 763.894 1165.23 780.49 1161.44 797.125C1161.14 798.389 1160.85 799.652 1160.54 800.955C1159.68 804.634 1158.84 808.316 1158 812C1157.55 813.927 1157.11 815.854 1156.66 817.781C1156.3 819.395 1155.93 821.01 1155.56 822.625C1155.4 823.346 1155.23 824.066 1155.07 824.809C1154.45 827.612 1154 830.118 1154 833C1189.32 822.843 1221.5 790.391 1238.88 759.021C1247.68 742.611 1253.87 723.533 1256 705C1256.16 703.66 1256.16 703.66 1256.33 702.293C1257.09 695.195 1257.1 688.132 1257 681C1256.67 681 1256.34 681 1256 681ZM82 683C80.3482 720.165 94.0131 759.198 119 787C137.431 806.875 158.314 821.829 183 833C183.66 833 184.32 833 185 833C177.183 791.555 166.792 758.565 131.496 732.563C122.267 725.763 112.992 718.906 105.66 710.008C103.749 707.697 101.723 705.515 99.6875 703.312C95.6294 698.837 91.9487 694.146 88.3621 689.29C86.3667 686.621 84.8086 684.872 82 683ZM192 742C189.31 745.62 188.57 748.464 188.324 752.922C188.26 754.067 188.196 755.212 188.13 756.393C187.533 772.936 187.104 789.647 190 806C190.169 807.002 190.169 807.002 190.342 808.024C196.794 844.707 222.283 877.698 252.132 898.84C254.666 900.413 257.321 901.694 260 903C258.051 863.895 254.512 832.083 228.125 801.312C213.48 783.819 203.102 762.799 194 742C193.34 742 192.68 742 192 742ZM1144 742C1143.77 742.517 1143.55 743.034 1143.32 743.566C1132.73 767.722 1120.86 789.183 1103.52 809.17C1080.14 836.18 1078.03 867.165 1079 902C1093.25 896.991 1106.54 882.468 1116 871C1116.77 870.132 1117.53 869.265 1118.32 868.371C1143.48 839.441 1152.04 802.643 1150 765C1149.68 761.146 1149.24 757.327 1148.69 753.5C1148.57 752.676 1148.45 751.851 1148.33 751.002C1147.66 746.985 1147.06 744.688 1144 742ZM139 816C132.871 846.027 131.237 877.847 148.391 904.684C175.811 944.15 223.464 964.041 269.319 972.621C284.672 975.327 299.522 977.171 315.125 977.062C316.368 977.058 317.61 977.053 318.891 977.049C321.927 977.037 324.964 977.021 328 977C325.14 975.093 322.306 973.816 319.149 972.489C304.162 966.146 291.703 958.32 280 947C278.633 945.803 277.259 944.615 275.875 943.437C272.136 940.195 268.688 936.702 265.211 933.184C262.614 930.619 259.906 928.23 257.133 925.859C255.601 924.524 254.099 923.155 252.617 921.766C241.34 911.195 228.789 902.456 216.018 893.797C184.665 872.505 159.273 849.509 141 816C140.34 816 139.68 816 139 816ZM1197 816C1196.55 816.897 1196.1 817.794 1195.64 818.719C1177.81 853.583 1149.49 875.391 1117.7 896.962C1103.36 906.701 1089.88 916.922 1077.7 929.328C1075.91 931.093 1074.04 932.734 1072.12 934.375C1069.17 936.919 1066.41 939.579 1063.69 942.375C1058.78 947.337 1053.5 951.705 1048 956C1047.15 956.681 1046.3 957.361 1045.42 958.062C1034.83 966.188 1022.67 971.918 1010 976C1010 976.66 1010 977.32 1010 978C1059.98 985.405 1120.79 964.523 1161.14 935.25C1168.81 929.218 1175.96 922.673 1182 915C1182.79 913.994 1183.59 912.989 1184.4 911.953C1195.73 897.104 1203.34 878.843 1204 860C1204.04 858.969 1204.08 857.937 1204.12 856.875C1204.39 842.95 1202.51 829.454 1199 816C1198.34 816 1197.68 816 1197 816ZM1071 874C1069.73 875.379 1068.45 876.762 1067.21 878.165C1061.28 884.811 1055.13 890.628 1048 896C1046.5 897.164 1046.5 897.164 1044.97 898.352C1037.09 904.326 1028.69 909.018 1019.98 913.674C1013 917.414 1006.41 921.339 1000 926C998.984 926.721 997.968 927.441 996.922 928.184C985.551 936.45 975.678 946.525 966.605 957.23C961.708 962.629 956.115 967.08 950 971C950 971.33 950 971.66 950 972C974.71 972.788 974.71 972.788 999 969C999.782 968.801 1000.56 968.603 1001.37 968.398C1018.49 963.978 1033.39 957.432 1047 946C1047.65 945.461 1048.3 944.922 1048.98 944.367C1063.47 931.196 1070.29 910.708 1071.88 891.73C1072.14 885.823 1072.07 879.911 1072 874C1071.67 874 1071.34 874 1071 874ZM267 875C266.346 899.457 268.95 922.251 286.419 940.939C303.122 958.076 324.126 965.577 347 971C347.75 971.187 348.5 971.374 349.273 971.567C352.972 972.154 356.629 972.123 360.363 972.098C361.155 972.096 361.947 972.095 362.763 972.093C365.28 972.088 367.796 972.075 370.312 972.062C372.024 972.057 373.736 972.053 375.447 972.049C379.632 972.038 383.816 972.021 388 972C385.079 969.042 382.259 966.35 378.875 963.937C372.151 958.805 366.592 952.326 361.203 945.836C349.308 931.526 333.202 921.69 317 913C300.701 904.257 284.172 894.313 272.465 879.656C270.818 877.794 269.002 876.465 267 875ZM210 963C215.833 990.583 233.571 1015.29 252.582 1035.43C254.653 1037.63 256.618 1039.88 258.562 1042.19C293.052 1081.72 348.3 1102.65 399 1109C401.268 1109.11 403.542 1109.18 405.812 1109.12C406.809 1109.11 407.805 1109.09 408.832 1109.07C409.547 1109.05 410.263 1109.02 411 1109C409.764 1084.7 392.115 1065.53 375 1050C354.419 1032.27 331.033 1022.68 305.5 1014.06C272.849 1002.97 243.881 985.933 215.758 966.25C213.105 964.01 213.105 964.01 210 963ZM1127 963C1126.46 963.522 1125.93 964.044 1125.38 964.582C1097.8 990.474 1060.56 1004.39 1025.49 1016.63C1012.87 1021.04 1000.68 1025.46 989 1032C987.67 1032.71 987.67 1032.71 986.312 1033.44C960.555 1047.93 937.128 1071.84 928.812 1100.5C928.106 1103.54 927.931 1105.92 928 1109C934.879 1109.16 941.501 1108.77 948.312 1107.81C949.261 1107.68 950.21 1107.55 951.187 1107.41C998.829 1100.36 1042.37 1078.17 1077 1045C1077.75 1044.29 1078.5 1043.58 1079.27 1042.85C1084.67 1037.63 1089.38 1031.92 1094 1026C1094.43 1025.45 1094.85 1024.91 1095.29 1024.35C1106.89 1009.42 1115.86 993.012 1124 976C1124.47 975.059 1124.93 974.118 1125.41 973.148C1125.79 972.357 1126.17 971.565 1126.56 970.75C1126.87 970.105 1127.18 969.461 1127.5 968.797C1128.12 966.555 1127.73 965.177 1127 963ZM321.812 982.875C320.714 982.934 320.714 982.934 319.594 982.994C302.046 982.741 302.046 982.741 287 988C287.994 988.175 288.988 988.351 290.012 988.531C379.948 1004.47 471.021 1031.12 552.117 1095.48C554.923 1097.93 557.787 1100.29 560.688 1102.62C574.478 1113.9 587.858 1126.28 598.879 1140.32C600.814 1142.76 602.824 1145.12 604.872 1147.47C632.484 1179.32 653.675 1218.51 668 1258C668.66 1258 669.32 1258 670 1258C670.306 1257.27 670.612 1256.54 670.927 1255.79C687.712 1215.97 706.776 1178.65 735.042 1145.66C737.714 1142.54 740.296 1139.37 742.812 1136.12C755.963 1119.61 771.521 1105.02 788.318 1092.28C789.971 1091.02 791.607 1089.74 793.238 1088.45C833.302 1056.87 880.995 1034.61 929 1018C930.167 1017.59 931.334 1017.19 932.536 1016.77C965.994 1005.22 1000.43 997.624 1035.1 990.715C1035.9 990.555 1036.7 990.395 1037.52 990.23C1042 989.348 1046.47 988.604 1051 988C1048.31 985.309 1046.57 985.542 1042.8 985.184C1040.89 984.997 1040.89 984.997 1038.94 984.807C1037.94 984.715 1037.94 984.715 1036.91 984.622C1034.93 984.442 1032.95 984.25 1030.97 984.057C1014.82 982.518 998.788 981.793 982.562 981.812C981.177 981.813 981.177 981.813 979.764 981.814C965.095 981.84 950.578 982.233 936 984C934.328 984.201 934.328 984.201 932.623 984.407C850.782 994.586 769.025 1033.23 717.18 1099.26C715.144 1101.82 713.031 1104.27 710.873 1106.73C699.242 1120 688.986 1134.31 679.125 1148.94C678.429 1149.96 677.732 1150.99 677.015 1152.04C676.373 1153.01 675.731 1153.97 675.07 1154.96C674.501 1155.82 673.931 1156.67 673.344 1157.55C671.961 1160.07 671.4 1162.16 671 1165C670.01 1165 669.02 1165 668 1165C667.841 1163.67 667.841 1163.67 667.68 1162.31C665.638 1152.36 656.701 1143.6 650.439 1135.8C648.105 1132.88 645.804 1129.94 643.5 1127C642.583 1125.84 641.667 1124.67 640.75 1123.51C638.903 1121.16 637.072 1118.8 635.25 1116.43C630.008 1109.64 624.579 1103.17 618.703 1096.91C616.677 1094.73 614.722 1092.53 612.781 1090.27C602.271 1078.21 590.688 1066.75 578 1057C576.947 1056.13 575.898 1055.25 574.852 1054.37C526.671 1014.19 468.645 992.825 406.938 984.75C405.69 984.587 404.442 984.423 403.157 984.255C388.695 982.461 374.314 981.794 359.75 981.812C358.646 981.812 358.646 981.812 357.52 981.812C345.598 981.826 333.715 982.218 321.812 982.875ZM351 1019C354.72 1022.04 358.854 1024.17 363.062 1026.44C387.484 1039.83 410.833 1055.61 429.125 1076.84C431.174 1079.2 433.272 1081.5 435.375 1083.81C439.246 1088.1 442.913 1092.52 446.551 1097.01C453.45 1105.43 460.594 1113.65 467.918 1121.7C469.312 1123.24 470.689 1124.8 472.051 1126.37C476.392 1131.37 480.926 1135.75 486 1140C486.911 1140.8 487.823 1141.6 488.762 1142.42C509.102 1160.18 532.191 1174.39 556 1187C556.837 1187.45 557.674 1187.89 558.536 1188.35C571.69 1195.31 585.165 1201.36 598.875 1207.12C599.652 1207.45 600.43 1207.78 601.231 1208.12C609.416 1211.59 617.145 1214.71 626 1216C625.421 1212.18 624.333 1209.48 622.332 1206.18C621.497 1204.8 621.497 1204.8 620.646 1203.4C620.041 1202.42 619.436 1201.44 618.812 1200.44C617.874 1198.91 617.874 1198.91 616.917 1197.36C607.64 1182.43 597.532 1168.2 586.348 1154.64C585.052 1153.06 583.776 1151.47 582.5 1149.88C578.762 1145.23 574.974 1140.82 570.676 1136.68C568.863 1134.86 567.219 1132.96 565.562 1131C562.645 1127.62 559.537 1124.7 556.133 1121.82C553.883 1119.9 551.73 1117.89 549.562 1115.87C523.922 1092.87 493.584 1075.49 463 1060C462.101 1059.54 461.202 1059.08 460.276 1058.61C436.383 1046.44 411.067 1037.62 385.75 1028.94C384.564 1028.53 384.564 1028.53 383.353 1028.11C367.466 1021.85 367.466 1021.85 351 1019ZM974.496 1021.51C973.638 1021.78 972.78 1022.06 971.895 1022.35C969.072 1023.26 966.255 1024.19 963.438 1025.12C962.475 1025.44 961.513 1025.76 960.521 1026.08C935.218 1034.4 909.992 1043.36 886 1055C884.226 1055.86 884.226 1055.86 882.416 1056.73C838.701 1077.9 795.717 1103.52 763.82 1140.91C761.732 1143.31 759.551 1145.61 757.375 1147.94C750.734 1155.22 744.869 1163.09 739 1171C738.535 1171.62 738.071 1172.25 737.592 1172.89C731.13 1181.59 725.432 1190.62 720 1200C719.22 1201.33 718.44 1202.66 717.66 1203.99C713.759 1209.68 713.759 1209.68 712 1216C717.232 1215.45 721.699 1214.16 726.559 1212.12C727.265 1211.83 727.972 1211.54 728.7 1211.24C730.194 1210.63 731.685 1210.01 733.176 1209.38C735.396 1208.45 737.622 1207.54 739.85 1206.63C749.191 1202.78 758.258 1198.53 767.241 1193.9C769.748 1192.62 772.268 1191.35 774.785 1190.09C794.798 1179.86 813.947 1168.4 832 1155C832.73 1154.46 833.46 1153.92 834.211 1153.36C844.758 1145.51 854.808 1137.43 864 1128C864.603 1127.41 865.207 1126.81 865.828 1126.2C870.454 1121.65 874.787 1116.94 879 1112C879.953 1110.89 880.906 1109.78 881.859 1108.66C883.438 1106.82 885.017 1104.98 886.594 1103.14C889.766 1099.43 892.962 1095.75 896.191 1092.09C897.597 1090.47 898.974 1088.82 900.34 1087.16C910.711 1074.56 922.037 1062.95 935 1053C936.119 1052.11 937.237 1051.21 938.355 1050.32C949.284 1041.71 961.099 1034.72 973.089 1027.71C977.412 1025.17 981.707 1022.59 986 1020C981.745 1018.58 978.597 1020.15 974.496 1021.51Z" fill="#005A41"/>
</g>
<defs>
<clipPath id="clip0_8_1153">
<rect width="1339" height="1341" fill="white"/>
</clipPath>
</defs>
</svg>
